<mxfile host="Electron" agent="Mozilla/5.0 (Windows NT 10.0; Win64; x64) AppleWebKit/537.36 (KHTML, like Gecko) draw.io/26.1.1 Chrome/132.0.6834.210 Electron/34.3.3 Safari/537.36" version="26.1.1">
  <diagram name="Page-1" id="YWeBCIOQtNgijhUOqATV">
    <mxGraphModel dx="1434" dy="1944" grid="1" gridSize="10" guides="1" tooltips="1" connect="1" arrows="1" fold="1" page="1" pageScale="1" pageWidth="850" pageHeight="1100" math="0" shadow="0">
      <root>
        <mxCell id="0" />
        <mxCell id="1" parent="0" />
        <mxCell id="TMomWQHEtdi1TI7mCcif-1" value="Rest_Customer" style="shape=umlActor;verticalLabelPosition=bottom;verticalAlign=top;html=1;" vertex="1" parent="1">
          <mxGeometry x="50" y="140" width="30" height="60" as="geometry" />
        </mxCell>
        <mxCell id="TMomWQHEtdi1TI7mCcif-3" value="&lt;p style=&quot;margin:0px;margin-top:4px;text-align:center;&quot;&gt;&lt;b&gt;&amp;lt;&amp;lt;boundary&amp;gt;&amp;gt;&lt;/b&gt;&lt;/p&gt;&lt;hr size=&quot;1&quot; style=&quot;border-style:solid;&quot;&gt;&lt;div style=&quot;text-align: center; height: 2px;&quot;&gt;FriendsScreen&lt;/div&gt;" style="verticalAlign=top;align=left;overflow=fill;html=1;whiteSpace=wrap;fillColor=#dae8fc;strokeColor=#6c8ebf;" vertex="1" parent="1">
          <mxGeometry x="320" y="140" width="140" height="60" as="geometry" />
        </mxCell>
        <mxCell id="TMomWQHEtdi1TI7mCcif-4" value="" style="endArrow=classic;html=1;rounded=0;exitX=0.5;exitY=0.5;exitDx=0;exitDy=0;exitPerimeter=0;" edge="1" parent="1" source="TMomWQHEtdi1TI7mCcif-1" target="TMomWQHEtdi1TI7mCcif-3">
          <mxGeometry width="50" height="50" relative="1" as="geometry">
            <mxPoint x="400" y="460" as="sourcePoint" />
            <mxPoint x="450" y="410" as="targetPoint" />
          </mxGeometry>
        </mxCell>
        <mxCell id="TMomWQHEtdi1TI7mCcif-5" value="click “Make/Show Friends”" style="edgeLabel;html=1;align=center;verticalAlign=middle;resizable=0;points=[];" vertex="1" connectable="0" parent="TMomWQHEtdi1TI7mCcif-4">
          <mxGeometry x="0.0047" y="-2" relative="1" as="geometry">
            <mxPoint x="2" y="-12" as="offset" />
          </mxGeometry>
        </mxCell>
        <mxCell id="TMomWQHEtdi1TI7mCcif-7" value="&lt;p style=&quot;margin:0px;margin-top:4px;text-align:center;&quot;&gt;&lt;b&gt;&amp;lt;&amp;lt;control&amp;gt;&amp;gt;&lt;/b&gt;&lt;/p&gt;&lt;hr size=&quot;1&quot; style=&quot;border-style:solid;&quot;&gt;&lt;div style=&quot;text-align: center; height: 2px;&quot;&gt;FriendsController&lt;/div&gt;" style="verticalAlign=top;align=left;overflow=fill;html=1;whiteSpace=wrap;fillColor=#d5e8d4;strokeColor=#82b366;" vertex="1" parent="1">
          <mxGeometry x="640" y="140" width="140" height="60" as="geometry" />
        </mxCell>
        <mxCell id="TMomWQHEtdi1TI7mCcif-8" value="" style="endArrow=classic;html=1;rounded=0;" edge="1" parent="1" source="TMomWQHEtdi1TI7mCcif-3" target="TMomWQHEtdi1TI7mCcif-7">
          <mxGeometry width="50" height="50" relative="1" as="geometry">
            <mxPoint x="400" y="460" as="sourcePoint" />
            <mxPoint x="450" y="410" as="targetPoint" />
          </mxGeometry>
        </mxCell>
        <mxCell id="TMomWQHEtdi1TI7mCcif-9" value="make/show friends()" style="edgeLabel;html=1;align=center;verticalAlign=middle;resizable=0;points=[];" vertex="1" connectable="0" parent="TMomWQHEtdi1TI7mCcif-8">
          <mxGeometry x="0.0118" y="-3" relative="1" as="geometry">
            <mxPoint y="-13" as="offset" />
          </mxGeometry>
        </mxCell>
        <mxCell id="TMomWQHEtdi1TI7mCcif-11" value="&lt;p style=&quot;margin:0px;margin-top:4px;text-align:center;&quot;&gt;&lt;b&gt;&amp;lt;&amp;lt;entity&amp;gt;&amp;gt;&lt;/b&gt;&lt;/p&gt;&lt;hr size=&quot;1&quot; style=&quot;border-style:solid;&quot;&gt;&lt;div style=&quot;text-align: center; height: 2px;&quot;&gt;FriendsList&lt;/div&gt;" style="verticalAlign=top;align=left;overflow=fill;html=1;whiteSpace=wrap;fillColor=#ffe6cc;strokeColor=#d79b00;" vertex="1" parent="1">
          <mxGeometry x="960" y="140" width="140" height="60" as="geometry" />
        </mxCell>
        <mxCell id="TMomWQHEtdi1TI7mCcif-13" value="" style="endArrow=classic;html=1;rounded=0;" edge="1" parent="1" source="TMomWQHEtdi1TI7mCcif-7" target="TMomWQHEtdi1TI7mCcif-11">
          <mxGeometry width="50" height="50" relative="1" as="geometry">
            <mxPoint x="400" y="360" as="sourcePoint" />
            <mxPoint x="450" y="310" as="targetPoint" />
          </mxGeometry>
        </mxCell>
        <mxCell id="TMomWQHEtdi1TI7mCcif-14" value="addFriend(userId)" style="edgeLabel;html=1;align=center;verticalAlign=middle;resizable=0;points=[];" vertex="1" connectable="0" parent="TMomWQHEtdi1TI7mCcif-13">
          <mxGeometry x="-0.0111" relative="1" as="geometry">
            <mxPoint x="1" y="-10" as="offset" />
          </mxGeometry>
        </mxCell>
        <mxCell id="TMomWQHEtdi1TI7mCcif-16" value="&lt;p style=&quot;margin:0px;margin-top:4px;text-align:center;&quot;&gt;&lt;b&gt;&amp;lt;&amp;lt;entity&amp;gt;&amp;gt;&lt;/b&gt;&lt;/p&gt;&lt;hr size=&quot;1&quot; style=&quot;border-style:solid;&quot;&gt;&lt;div style=&quot;text-align: center; height: 2px;&quot;&gt;User&lt;/div&gt;" style="verticalAlign=top;align=left;overflow=fill;html=1;whiteSpace=wrap;fillColor=#ffe6cc;strokeColor=#d79b00;" vertex="1" parent="1">
          <mxGeometry x="960" y="-20" width="140" height="60" as="geometry" />
        </mxCell>
        <mxCell id="TMomWQHEtdi1TI7mCcif-17" value="" style="endArrow=classic;html=1;rounded=0;" edge="1" parent="1" source="TMomWQHEtdi1TI7mCcif-7" target="TMomWQHEtdi1TI7mCcif-16">
          <mxGeometry width="50" height="50" relative="1" as="geometry">
            <mxPoint x="410" y="260" as="sourcePoint" />
            <mxPoint x="460" y="210" as="targetPoint" />
            <Array as="points">
              <mxPoint x="710" y="10" />
            </Array>
          </mxGeometry>
        </mxCell>
        <mxCell id="TMomWQHEtdi1TI7mCcif-18" value="validateFriend(phoneNumber)" style="edgeLabel;html=1;align=center;verticalAlign=middle;resizable=0;points=[];" vertex="1" connectable="0" parent="TMomWQHEtdi1TI7mCcif-17">
          <mxGeometry x="0.1421" relative="1" as="geometry">
            <mxPoint x="3" y="-10" as="offset" />
          </mxGeometry>
        </mxCell>
        <mxCell id="TMomWQHEtdi1TI7mCcif-19" value="&lt;div&gt;«alt» FriendNotFound&lt;/div&gt;&lt;div&gt;showError(“No such user”)&lt;/div&gt;" style="shape=note2;boundedLbl=1;whiteSpace=wrap;html=1;size=25;verticalAlign=top;align=center;" vertex="1" parent="1">
          <mxGeometry x="640" y="310" width="140" height="90" as="geometry" />
        </mxCell>
        <mxCell id="TMomWQHEtdi1TI7mCcif-20" value="" style="endArrow=none;dashed=1;html=1;rounded=0;strokeColor=default;startArrow=classic;startFill=1;" edge="1" parent="1" source="TMomWQHEtdi1TI7mCcif-19" target="TMomWQHEtdi1TI7mCcif-7">
          <mxGeometry width="50" height="50" relative="1" as="geometry">
            <mxPoint x="420" y="260" as="sourcePoint" />
            <mxPoint x="860" y="280" as="targetPoint" />
          </mxGeometry>
        </mxCell>
        <mxCell id="TMomWQHEtdi1TI7mCcif-23" value="&lt;p style=&quot;margin:0px;margin-top:4px;text-align:center;&quot;&gt;&lt;b&gt;&amp;lt;&amp;lt;boundary&amp;gt;&amp;gt;&lt;/b&gt;&lt;/p&gt;&lt;hr size=&quot;1&quot; style=&quot;border-style:solid;&quot;&gt;&lt;div style=&quot;text-align: center; height: 2px;&quot;&gt;FoodSearchScreen&lt;/div&gt;" style="verticalAlign=top;align=left;overflow=fill;html=1;whiteSpace=wrap;fillColor=#dae8fc;strokeColor=#6c8ebf;" vertex="1" parent="1">
          <mxGeometry x="320" y="580" width="140" height="60" as="geometry" />
        </mxCell>
        <mxCell id="TMomWQHEtdi1TI7mCcif-24" value="" style="endArrow=classic;html=1;rounded=0;" edge="1" parent="1" source="TMomWQHEtdi1TI7mCcif-1" target="TMomWQHEtdi1TI7mCcif-23">
          <mxGeometry width="50" height="50" relative="1" as="geometry">
            <mxPoint x="420" y="510" as="sourcePoint" />
            <mxPoint x="470" y="460" as="targetPoint" />
            <Array as="points">
              <mxPoint x="65" y="610" />
            </Array>
          </mxGeometry>
        </mxCell>
        <mxCell id="TMomWQHEtdi1TI7mCcif-25" value="enter search / tap “Sort”" style="edgeLabel;html=1;align=center;verticalAlign=middle;resizable=0;points=[];" vertex="1" connectable="0" parent="TMomWQHEtdi1TI7mCcif-24">
          <mxGeometry x="0.4556" relative="1" as="geometry">
            <mxPoint x="11" y="-10" as="offset" />
          </mxGeometry>
        </mxCell>
        <mxCell id="TMomWQHEtdi1TI7mCcif-26" value="&lt;p style=&quot;margin:0px;margin-top:4px;text-align:center;&quot;&gt;&lt;b&gt;&amp;lt;&amp;lt;control&amp;gt;&amp;gt;&lt;/b&gt;&lt;/p&gt;&lt;hr size=&quot;1&quot; style=&quot;border-style:solid;&quot;&gt;&lt;div style=&quot;text-align: center; height: 2px;&quot;&gt;FoodSearchController&lt;/div&gt;" style="verticalAlign=top;align=left;overflow=fill;html=1;whiteSpace=wrap;fillColor=#d5e8d4;strokeColor=#82b366;" vertex="1" parent="1">
          <mxGeometry x="640" y="580" width="140" height="60" as="geometry" />
        </mxCell>
        <mxCell id="TMomWQHEtdi1TI7mCcif-27" value="" style="endArrow=classic;html=1;rounded=0;" edge="1" parent="1" source="TMomWQHEtdi1TI7mCcif-23" target="TMomWQHEtdi1TI7mCcif-26">
          <mxGeometry width="50" height="50" relative="1" as="geometry">
            <mxPoint x="420" y="510" as="sourcePoint" />
            <mxPoint x="470" y="460" as="targetPoint" />
          </mxGeometry>
        </mxCell>
        <mxCell id="TMomWQHEtdi1TI7mCcif-28" value="searchFood(keyword, sortOption)" style="edgeLabel;html=1;align=center;verticalAlign=middle;resizable=0;points=[];" vertex="1" connectable="0" parent="TMomWQHEtdi1TI7mCcif-27">
          <mxGeometry x="-0.0444" y="1" relative="1" as="geometry">
            <mxPoint x="4" y="-9" as="offset" />
          </mxGeometry>
        </mxCell>
        <mxCell id="TMomWQHEtdi1TI7mCcif-29" value="&lt;p style=&quot;margin:0px;margin-top:4px;text-align:center;&quot;&gt;&lt;b&gt;&amp;lt;&amp;lt;entity&amp;gt;&amp;gt;&lt;/b&gt;&lt;/p&gt;&lt;hr size=&quot;1&quot; style=&quot;border-style:solid;&quot;&gt;&lt;div style=&quot;text-align: center; height: 2px;&quot;&gt;Dish&lt;/div&gt;" style="verticalAlign=top;align=left;overflow=fill;html=1;whiteSpace=wrap;fillColor=#ffe6cc;strokeColor=#d79b00;" vertex="1" parent="1">
          <mxGeometry x="960" y="500" width="140" height="60" as="geometry" />
        </mxCell>
        <mxCell id="TMomWQHEtdi1TI7mCcif-30" value="&lt;p style=&quot;margin:0px;margin-top:4px;text-align:center;&quot;&gt;&lt;b&gt;&amp;lt;&amp;lt;entity&amp;gt;&amp;gt;&lt;/b&gt;&lt;/p&gt;&lt;hr size=&quot;1&quot; style=&quot;border-style:solid;&quot;&gt;&lt;div style=&quot;text-align: center; height: 2px;&quot;&gt;Recipe&lt;/div&gt;" style="verticalAlign=top;align=left;overflow=fill;html=1;whiteSpace=wrap;fillColor=#ffe6cc;strokeColor=#d79b00;" vertex="1" parent="1">
          <mxGeometry x="960" y="660" width="140" height="60" as="geometry" />
        </mxCell>
        <mxCell id="TMomWQHEtdi1TI7mCcif-31" value="" style="endArrow=classic;html=1;rounded=0;" edge="1" parent="1" source="TMomWQHEtdi1TI7mCcif-26" target="TMomWQHEtdi1TI7mCcif-29">
          <mxGeometry width="50" height="50" relative="1" as="geometry">
            <mxPoint x="750" y="510" as="sourcePoint" />
            <mxPoint x="800" y="460" as="targetPoint" />
            <Array as="points">
              <mxPoint x="710" y="530" />
            </Array>
          </mxGeometry>
        </mxCell>
        <mxCell id="TMomWQHEtdi1TI7mCcif-33" value="findDishesBy(keyword)" style="edgeLabel;html=1;align=center;verticalAlign=middle;resizable=0;points=[];" vertex="1" connectable="0" parent="TMomWQHEtdi1TI7mCcif-31">
          <mxGeometry x="-0.0267" y="2" relative="1" as="geometry">
            <mxPoint x="14" y="-8" as="offset" />
          </mxGeometry>
        </mxCell>
        <mxCell id="TMomWQHEtdi1TI7mCcif-32" value="" style="endArrow=classic;html=1;rounded=0;" edge="1" parent="1" source="TMomWQHEtdi1TI7mCcif-26" target="TMomWQHEtdi1TI7mCcif-30">
          <mxGeometry width="50" height="50" relative="1" as="geometry">
            <mxPoint x="690" y="760" as="sourcePoint" />
            <mxPoint x="940" y="710" as="targetPoint" />
            <Array as="points">
              <mxPoint x="850" y="610" />
              <mxPoint x="850" y="690" />
            </Array>
          </mxGeometry>
        </mxCell>
        <mxCell id="TMomWQHEtdi1TI7mCcif-34" value="findRecipesBy(dishId)" style="edgeLabel;html=1;align=center;verticalAlign=middle;resizable=0;points=[];" vertex="1" connectable="0" parent="TMomWQHEtdi1TI7mCcif-32">
          <mxGeometry x="0.08" relative="1" as="geometry">
            <mxPoint y="-10" as="offset" />
          </mxGeometry>
        </mxCell>
        <mxCell id="TMomWQHEtdi1TI7mCcif-35" value="&lt;p style=&quot;margin:0px;margin-top:4px;text-align:center;&quot;&gt;&lt;b&gt;&amp;lt;&amp;lt;control&amp;gt;&amp;gt;&lt;/b&gt;&lt;/p&gt;&lt;hr size=&quot;1&quot; style=&quot;border-style:solid;&quot;&gt;&lt;div style=&quot;text-align: center; height: 2px;&quot;&gt;SortHelper&lt;/div&gt;" style="verticalAlign=top;align=left;overflow=fill;html=1;whiteSpace=wrap;fillColor=#d5e8d4;strokeColor=#82b366;" vertex="1" parent="1">
          <mxGeometry x="640" y="780" width="140" height="60" as="geometry" />
        </mxCell>
        <mxCell id="TMomWQHEtdi1TI7mCcif-36" value="" style="endArrow=classic;html=1;rounded=0;" edge="1" parent="1" source="TMomWQHEtdi1TI7mCcif-26" target="TMomWQHEtdi1TI7mCcif-35">
          <mxGeometry width="50" height="50" relative="1" as="geometry">
            <mxPoint x="750" y="610" as="sourcePoint" />
            <mxPoint x="800" y="560" as="targetPoint" />
          </mxGeometry>
        </mxCell>
        <mxCell id="TMomWQHEtdi1TI7mCcif-37" value="sort(results, strategy)" style="edgeLabel;html=1;align=center;verticalAlign=middle;resizable=0;points=[];" vertex="1" connectable="0" parent="TMomWQHEtdi1TI7mCcif-36">
          <mxGeometry x="0.0714" y="-1" relative="1" as="geometry">
            <mxPoint as="offset" />
          </mxGeometry>
        </mxCell>
        <mxCell id="TMomWQHEtdi1TI7mCcif-38" value="&lt;div&gt;«alt» NoResults&lt;/div&gt;&lt;div&gt;showError(“No matches”)&lt;/div&gt;" style="shape=note2;boundedLbl=1;whiteSpace=wrap;html=1;size=25;verticalAlign=top;align=center;" vertex="1" parent="1">
          <mxGeometry x="400" y="750" width="140" height="90" as="geometry" />
        </mxCell>
        <mxCell id="TMomWQHEtdi1TI7mCcif-39" value="" style="endArrow=none;dashed=1;html=1;rounded=0;strokeColor=default;startArrow=classic;startFill=1;" edge="1" parent="1" source="TMomWQHEtdi1TI7mCcif-38" target="TMomWQHEtdi1TI7mCcif-26">
          <mxGeometry width="50" height="50" relative="1" as="geometry">
            <mxPoint x="560" y="760" as="sourcePoint" />
            <mxPoint x="560" y="650" as="targetPoint" />
          </mxGeometry>
        </mxCell>
        <mxCell id="TMomWQHEtdi1TI7mCcif-42" value="" style="endArrow=classic;html=1;rounded=0;exitX=0.014;exitY=0.867;exitDx=0;exitDy=0;entryX=1.014;entryY=0.867;entryDx=0;entryDy=0;exitPerimeter=0;entryPerimeter=0;" edge="1" parent="1" source="TMomWQHEtdi1TI7mCcif-7" target="TMomWQHEtdi1TI7mCcif-3">
          <mxGeometry width="50" height="50" relative="1" as="geometry">
            <mxPoint x="620" y="140" as="sourcePoint" />
            <mxPoint x="670" y="90" as="targetPoint" />
          </mxGeometry>
        </mxCell>
        <mxCell id="TMomWQHEtdi1TI7mCcif-43" value="&amp;nbsp;displayFriends()" style="edgeLabel;html=1;align=center;verticalAlign=middle;resizable=0;points=[];" vertex="1" connectable="0" parent="TMomWQHEtdi1TI7mCcif-42">
          <mxGeometry x="0.0773" y="2" relative="1" as="geometry">
            <mxPoint y="6" as="offset" />
          </mxGeometry>
        </mxCell>
        <mxCell id="TMomWQHEtdi1TI7mCcif-44" value="" style="endArrow=classic;html=1;rounded=0;entryX=0.986;entryY=0.883;entryDx=0;entryDy=0;entryPerimeter=0;" edge="1" parent="1" target="TMomWQHEtdi1TI7mCcif-23">
          <mxGeometry width="50" height="50" relative="1" as="geometry">
            <mxPoint x="639" y="633" as="sourcePoint" />
            <mxPoint x="670" y="590" as="targetPoint" />
          </mxGeometry>
        </mxCell>
        <mxCell id="TMomWQHEtdi1TI7mCcif-45" value="display(results)" style="edgeLabel;html=1;align=center;verticalAlign=middle;resizable=0;points=[];" vertex="1" connectable="0" parent="TMomWQHEtdi1TI7mCcif-44">
          <mxGeometry x="0.1163" relative="1" as="geometry">
            <mxPoint x="12" y="7" as="offset" />
          </mxGeometry>
        </mxCell>
        <mxCell id="TMomWQHEtdi1TI7mCcif-46" value="" style="endArrow=classic;html=1;rounded=0;exitX=1;exitY=0.75;exitDx=0;exitDy=0;entryX=0;entryY=0.75;entryDx=0;entryDy=0;" edge="1" parent="1" source="TMomWQHEtdi1TI7mCcif-7" target="TMomWQHEtdi1TI7mCcif-11">
          <mxGeometry width="50" height="50" relative="1" as="geometry">
            <mxPoint x="840" y="270" as="sourcePoint" />
            <mxPoint x="890" y="220" as="targetPoint" />
          </mxGeometry>
        </mxCell>
        <mxCell id="TMomWQHEtdi1TI7mCcif-47" value="getAll()" style="edgeLabel;html=1;align=center;verticalAlign=middle;resizable=0;points=[];" vertex="1" connectable="0" parent="TMomWQHEtdi1TI7mCcif-46">
          <mxGeometry y="-1" relative="1" as="geometry">
            <mxPoint y="4" as="offset" />
          </mxGeometry>
        </mxCell>
      </root>
    </mxGraphModel>
  </diagram>
</mxfile>
